<?xml version="1.0" standalone="no"?>
<!DOCTYPE svg PUBLIC "-//W3C//DTD SVG 20010904//EN"
 "http://www.w3.org/TR/2001/REC-SVG-20010904/DTD/svg10.dtd">
<svg version="1.0" xmlns="http://www.w3.org/2000/svg"
 width="32.000000pt" height="32.000000pt" viewBox="0 0 32.000000 32.000000"
 preserveAspectRatio="xMidYMid meet">

<g transform="translate(0.000000,32.000000) scale(0.100000,-0.100000)"
fill="#000000" stroke="none">
<path d="M94 305 c-32 -14 -84 -68 -84 -87 0 -6 10 4 23 23 43 64 119 83 193
49 33 -16 43 -24 32 -27 -10 -3 -28 3 -40 11 -41 29 -121 13 -162 -32 -43 -49
-24 -172 30 -192 26 -10 50 6 141 98 l53 53 0 -38 c0 -22 -6 -48 -14 -58 -7
-10 -11 -27 -8 -37 2 -10 -1 -18 -7 -18 -6 0 -11 10 -12 23 0 14 -2 17 -6 7
-3 -8 -13 -21 -22 -29 -15 -13 -15 -13 1 -8 10 3 20 2 23 -3 3 -4 -11 -14 -31
-20 -92 -31 -191 44 -195 147 -2 34 -2 35 -6 8 -22 -144 163 -231 268 -126
125 124 -16 327 -177 256z m124 -41 c4 -3 1 -9 -6 -11 -28 -10 -123 -96 -138
-125 -19 -37 -34 -23 -34 34 0 39 36 92 74 109 23 9 93 5 104 -7z m35 -20 c9
-9 -11 -44 -42 -74 -53 -51 -116 -100 -128 -100 -29 0 -10 45 42 98 52 53 57
56 78 43 20 -13 21 -13 8 3 -13 15 -13 19 0 27 17 10 33 12 42 3z m57 -80 c0
-30 -20 -84 -32 -84 -6 0 -7 7 -2 18 5 9 9 46 8 82 -1 62 0 64 12 35 7 -16 13
-39 14 -51z"/>
<path d="M143 33 c9 -2 25 -2 35 0 9 3 1 5 -18 5 -19 0 -27 -2 -17 -5z"/>
</g>
</svg>
